<svg xmlns="http://www.w3.org/2000/svg" width="800" height="400" viewBox="0 0 800 400">
  <rect width="800" height="400" fill="#f5f7fa" />
  <rect x="20" y="20" width="760" height="60" rx="4" fill="#0A2342" />
  <rect x="40" y="40" width="200" height="20" rx="4" fill="#fff" opacity="0.7" />
  <rect x="700" y="40" width="60" height="20" rx="10" fill="#2CA58D" />
  
  <rect x="20" y="100" width="370" height="280" rx="4" fill="#fff" stroke="#e0e0e0" stroke-width="1" />
  <rect x="40" y="120" width="150" height="20" rx="4" fill="#0A2342" />
  <rect x="40" y="150" width="330" height="210" rx="4" fill="#f0f0f0" />
  <path d="M40,220 Q120,180 170,250 T330,230" stroke="#2CA58D" stroke-width="3" fill="none" />
  <path d="M40,280 Q90,320 180,260 T330,290" stroke="#1B6CA8" stroke-width="3" fill="none" />
  
  <rect x="410" y="100" width="370" height="130" rx="4" fill="#fff" stroke="#e0e0e0" stroke-width="1" />
  <rect x="430" y="120" width="150" height="20" rx="4" fill="#0A2342" />
  <rect x="430" y="150" width="150" height="60" rx="4" fill="#f0f0f0" />
  <rect x="600" y="150" width="150" height="60" rx="4" fill="#f0f0f0" />
  
  <rect x="410" y="250" width="370" height="130" rx="4" fill="#fff" stroke="#e0e0e0" stroke-width="1" />
  <rect x="430" y="270" width="150" height="20" rx="4" fill="#0A2342" />
  <circle cx="480" cy="320" r="50" fill="none" stroke="#2CA58D" stroke-width="20" stroke-dasharray="100 100" transform="rotate(-90 480 320)" />
  <circle cx="480" cy="320" r="50" fill="none" stroke="#1B6CA8" stroke-width="20" stroke-dasharray="60 140" transform="rotate(-90 480 320)" />
  
  <rect x="600" y="300" width="150" height="15" rx="4" fill="#f0f0f0" />
  <rect x="600" y="325" width="150" height="15" rx="4" fill="#f0f0f0" />
  <rect x="600" y="350" width="150" height="15" rx="4" fill="#f0f0f0" />
</svg>
