<svg xmlns="http://www.w3.org/2000/svg" width="800" height="400" viewBox="0 0 800 400">
  <rect width="800" height="400" fill="#f5f7fa" />
  <rect x="20" y="20" width="760" height="60" rx="4" fill="#0A2342" />
  <rect x="40" y="40" width="200" height="20" rx="4" fill="#fff" opacity="0.7" />
  <rect x="700" y="40" width="60" height="20" rx="10" fill="#2CA58D" />
  
  <rect x="20" y="100" width="245" height="130" rx="4" fill="#fff" stroke="#e0e0e0" stroke-width="1" />
  <rect x="35" y="115" width="120" height="15" rx="4" fill="#0A2342" />
  <text x="142.5" y="170" font-family="Arial" font-size="26" text-anchor="middle" fill="#1B6CA8" font-weight="bold">348K</text>
  <text x="142.5" y="200" font-family="Arial" font-size="14" text-anchor="middle" fill="#666">Total Impressions</text>

  <rect x="277.5" y="100" width="245" height="130" rx="4" fill="#fff" stroke="#e0e0e0" stroke-width="1" />
  <rect x="292.5" y="115" width="120" height="15" rx="4" fill="#0A2342" />
  <text x="400" y="170" font-family="Arial" font-size="26" text-anchor="middle" fill="#2CA58D" font-weight="bold">12.4%</text>
  <text x="400" y="200" font-family="Arial" font-size="14" text-anchor="middle" fill="#666">Engagement Rate</text>

  <rect x="535" y="100" width="245" height="130" rx="4" fill="#fff" stroke="#e0e0e0" stroke-width="1" />
  <rect x="550" y="115" width="120" height="15" rx="4" fill="#0A2342" />
  <text x="657.5" y="170" font-family="Arial" font-size="26" text-anchor="middle" fill="#0A2342" font-weight="bold">$24.5K</text>
  <text x="657.5" y="200" font-family="Arial" font-size="14" text-anchor="middle" fill="#666">Revenue Generated</text>
  
  <rect x="20" y="250" width="480" height="130" rx="4" fill="#fff" stroke="#e0e0e0" stroke-width="1" />
  <rect x="35" y="265" width="120" height="15" rx="4" fill="#0A2342" />
  <line x1="50" y1="330" x2="470" y2="330" stroke="#eee" />
  <line x1="50" y1="300" x2="470" y2="300" stroke="#eee" />
  <line x1="50" y1="360" x2="470" y2="360" stroke="#eee" />
  
  <rect x="65" y="320" width="20" height="40" fill="#1B6CA8" />
  <rect x="115" y="310" width="20" height="50" fill="#1B6CA8" />
  <rect x="165" y="290" width="20" height="70" fill="#1B6CA8" />
  <rect x="215" y="270" width="20" height="90" fill="#1B6CA8" />
  <rect x="265" y="300" width="20" height="60" fill="#1B6CA8" />
  <rect x="315" y="320" width="20" height="40" fill="#1B6CA8" />
  <rect x="365" y="280" width="20" height="80" fill="#1B6CA8" />
  <rect x="415" y="320" width="20" height="40" fill="#1B6CA8" />
  
  <rect x="520" y="250" width="260" height="130" rx="4" fill="#fff" stroke="#e0e0e0" stroke-width="1" />
  <rect x="535" y="265" width="120" height="15" rx="4" fill="#0A2342" />
  <circle cx="650" cy="320" r="50" fill="transparent" />
  <path d="M650,270 A50,50 0 0,1 695.7,295 L650,320 Z" fill="#2CA58D" />
  <path d="M650,320 L695.7,295 A50,50 0 0,1 684.7,345 Z" fill="#1B6CA8" />
  <path d="M650,320 L684.7,345 A50,50 0 0,1 650,370 Z" fill="#0A2342" />
  <path d="M650,320 L650,370 A50,50 0 0,1 604.3,295 L650,320 Z" fill="#E0E0E0" />
</svg>
