<svg xmlns="http://www.w3.org/2000/svg" width="800" height="400" viewBox="0 0 800 400">
  <rect width="800" height="400" fill="#f5f7fa" />
  
  <rect x="20" y="20" width="760" height="60" rx="4" fill="#0A2342" />
  <rect x="40" y="40" width="200" height="20" rx="4" fill="#fff" opacity="0.7" />
  <rect x="700" y="40" width="60" height="20" rx="10" fill="#2CA58D" />
  
  <!-- Chart area 1 - Line chart -->
  <rect x="20" y="100" width="370" height="130" rx="4" fill="#fff" stroke="#e0e0e0" stroke-width="1" />
  <rect x="40" y="120" width="150" height="20" rx="4" fill="#0A2342" />
  <polyline points="40,190 90,170 140,180 190,160 240,140 290,150 340,120" 
            fill="none" stroke="#2CA58D" stroke-width="3" />
  <polyline points="40,210 90,200 140,210 190,190 240,200 290,180 340,190" 
            fill="none" stroke="#1B6CA8" stroke-width="3" />
            
  <!-- Chart area 2 - Scatter plot -->
  <rect x="410" y="100" width="370" height="130" rx="4" fill="#fff" stroke="#e0e0e0" stroke-width="1" />
  <rect x="430" y="120" width="150" height="20" rx="4" fill="#0A2342" />
  <circle cx="460" cy="180" r="5" fill="#2CA58D" />
  <circle cx="500" cy="150" r="5" fill="#2CA58D" />
  <circle cx="540" cy="190" r="5" fill="#2CA58D" />
  <circle cx="580" cy="170" r="5" fill="#2CA58D" />
  <circle cx="620" cy="140" r="5" fill="#2CA58D" />
  <circle cx="660" cy="180" r="5" fill="#2CA58D" />
  <circle cx="700" cy="160" r="5" fill="#2CA58D" />
  
  <!-- Key metrics -->
  <rect x="20" y="250" width="180" height="130" rx="4" fill="#fff" stroke="#e0e0e0" stroke-width="1" />
  <rect x="40" y="270" width="100" height="15" rx="4" fill="#0A2342" />
  <text x="110" y="320" font-family="Arial" font-size="24" text-anchor="middle" fill="#2CA58D" font-weight="bold">92%</text>
  <text x="110" y="350" font-family="Arial" font-size="14" text-anchor="middle" fill="#666">Accuracy</text>
  
  <rect x="215" y="250" width="180" height="130" rx="4" fill="#fff" stroke="#e0e0e0" stroke-width="1" />
  <rect x="235" y="270" width="100" height="15" rx="4" fill="#0A2342" />
  <text x="305" y="320" font-family="Arial" font-size="24" text-anchor="middle" fill="#1B6CA8" font-weight="bold">62K</text>
  <text x="305" y="350" font-family="Arial" font-size="14" text-anchor="middle" fill="#666">Predictions</text>
  
  <!-- Chart area 3 - Bar chart -->
  <rect x="410" y="250" width="370" height="130" rx="4" fill="#fff" stroke="#e0e0e0" stroke-width="1" />
  <rect x="430" y="270" width="150" height="20" rx="4" fill="#0A2342" />
  <rect x="450" y="320" width="30" height="40" fill="#0A2342" />
  <rect x="490" y="300" width="30" height="60" fill="#0A2342" />
  <rect x="530" y="310" width="30" height="50" fill="#0A2342" />
  <rect x="570" y="290" width="30" height="70" fill="#0A2342" />
  <rect x="610" y="330" width="30" height="30" fill="#0A2342" />
  <rect x="650" y="310" width="30" height="50" fill="#0A2342" />
  <rect x="690" y="280" width="30" height="80" fill="#0A2342" />
</svg>
