<svg xmlns="http://www.w3.org/2000/svg" width="800" height="400" viewBox="0 0 800 400">
  <rect width="800" height="400" fill="#f5f7fa" />
  
  <rect x="20" y="20" width="760" height="60" rx="4" fill="#0A2342" />
  <rect x="40" y="40" width="200" height="20" rx="4" fill="#fff" opacity="0.7" />
  <rect x="700" y="40" width="60" height="20" rx="10" fill="#2CA58D" />
  
  <rect x="20" y="100" width="370" height="280" rx="4" fill="#fff" stroke="#e0e0e0" stroke-width="1" />
  <rect x="40" y="120" width="150" height="20" rx="4" fill="#0A2342" />
  
  <!-- Map representation -->
  <rect x="40" y="160" width="330" height="200" rx="4" fill="#f0f0f0" />
  <path d="M60,200 L100,220 L130,180 L160,230 L200,210 L230,260 L280,240 L320,270 L350,220" 
        stroke="#1B6CA8" stroke-width="2" fill="none" />
  
  <!-- Location markers -->
  <circle cx="100" cy="220" r="5" fill="#2CA58D" />
  <circle cx="160" cy="230" r="5" fill="#2CA58D" />
  <circle cx="230" cy="260" r="5" fill="#2CA58D" />
  <circle cx="320" cy="270" r="5" fill="#2CA58D" />
  
  <rect x="410" y="100" width="370" height="130" rx="4" fill="#fff" stroke="#e0e0e0" stroke-width="1" />
  <rect x="430" y="120" width="150" height="20" rx="4" fill="#0A2342" />
  
  <!-- Mini bar chart -->
  <rect x="430" y="160" width="30" height="50" fill="#1B6CA8" />
  <rect x="470" y="150" width="30" height="60" fill="#1B6CA8" />
  <rect x="510" y="130" width="30" height="80" fill="#1B6CA8" />
  <rect x="550" y="170" width="30" height="40" fill="#1B6CA8" />
  <rect x="590" y="140" width="30" height="70" fill="#1B6CA8" />
  <rect x="630" y="160" width="30" height="50" fill="#1B6CA8" />
  <rect x="670" y="120" width="30" height="90" fill="#1B6CA8" />
  
  <rect x="410" y="250" width="370" height="130" rx="4" fill="#fff" stroke="#e0e0e0" stroke-width="1" />
  <rect x="430" y="270" width="150" height="20" rx="4" fill="#0A2342" />
  
  <!-- Data table representation -->
  <line x1="430" y1="300" x2="760" y2="300" stroke="#e0e0e0" />
  <line x1="430" y1="330" x2="760" y2="330" stroke="#e0e0e0" />
  <line x1="430" y1="360" x2="760" y2="360" stroke="#e0e0e0" />
  
  <rect x="430" y="305" width="330" height="20" fill="#f8f8f8" />
  <rect x="430" y="335" width="330" height="20" fill="#f8f8f8" />
</svg>
