<svg xmlns="http://www.w3.org/2000/svg" width="800" height="400" viewBox="0 0 800 400">
  <rect width="800" height="400" fill="#f5f7fa" />
  
  <!-- Desk surface -->
  <rect x="50" y="250" width="700" height="30" rx="5" fill="#8B4513" />
  
  <!-- Large curved ultrawide monitor -->
  <path d="M200,130 
           C300,110 500,110 600,130
           L590,220 
           C500,205 300,205 210,220 Z" 
        fill="#333" />
  <path d="M210,135 
           C300,117 500,117 590,135
           L580,215 
           C500,200 300,200 220,215 Z" 
        fill="#f0f0f0" />
  
  <!-- Data visualization on monitor -->
  <polyline points="250,175 300,155 350,185 400,145 450,175 500,155 550,185" 
            stroke="#2CA58D" stroke-width="3" fill="none" />
  <circle cx="250" cy="175" r="4" fill="#1B6CA8" />
  <circle cx="300" cy="155" r="4" fill="#1B6CA8" />
  <circle cx="350" cy="185" r="4" fill="#1B6CA8" />
  <circle cx="400" cy="145" r="4" fill="#1B6CA8" />
  <circle cx="450" cy="175" r="4" fill="#1B6CA8" />
  <circle cx="500" cy="155" r="4" fill="#1B6CA8" />
  <circle cx="550" cy="185" r="4" fill="#1B6CA8" />
  
  <!-- Monitor stand -->
  <rect x="390" y="220" width="20" height="30" fill="#555" />
  <rect x="370" y="240" width="60" height="10" rx="5" fill="#555" />
  
  <!-- Tablet showing dashboard -->
  <rect x="150" y="200" width="90" height="70" rx="5" fill="#333" />
  <rect x="155" y="205" width="80" height="60" rx="3" fill="#f0f0f0" />
  <rect x="165" y="215" width="25" height="25" rx="3" fill="#1B6CA8" opacity="0.7" />
  <rect x="165" y="245" width="60" height="5" rx="2" fill="#333" />
  <rect x="165" y="255" width="40" height="5" rx="2" fill="#333" />
  
  <!-- Laptop -->
  <rect x="560" y="180" width="110" height="70" rx="3" fill="#333" />
  <rect x="560" y="240" width="110" height="10" rx="2" fill="#333" />
  <rect x="610" y="245" width="10" height="5" fill="#333" />
  <rect x="565" y="185" width="100" height="60" rx="2" fill="#f0f0f0" />
  
  <!-- Code on laptop screen -->
  <line x1="575" y1="195" x2="655" y2="195" stroke="#333" stroke-width="1" />
  <line x1="575" y1="205" x2="635" y2="205" stroke="#333" stroke-width="1" />
  <line x1="585" y1="215" x2="645" y2="215" stroke="#333" stroke-width="1" />
  <line x1="575" y1="225" x2="650" y2="225" stroke="#333" stroke-width="1" />
  <line x1="575" y1="235" x2="630" y2="235" stroke="#333" stroke-width="1" />
  
  <!-- Coffee mug -->
  <rect x="500" y="220" width="30" height="30" rx="3" fill="#A52A2A" />
  <path d="M530,225 C540,225 540,245 530,245" fill="none" stroke="#A52A2A" stroke-width="3" />
  
  <!-- Keyboard -->
  <rect x="340" y="280" width="120" height="30" rx="5" fill="#333" />
  <rect x="345" y="285" width="110" height="20" rx="3" fill="#222" />
  
  <!-- Mouse -->
  <ellipse cx="500" cy="295" rx="15" ry="20" fill="#333" />
  
  <!-- Notebook -->
  <rect x="700" y="200" width="50" height="70" rx="2" transform="rotate(10 700 200)" fill="#f0f0f0" />
  <line x1="710" y1="215" x2="740" y2="215" stroke="#ddd" stroke-width="1" transform="rotate(10 700 200)" />
  <line x1="710" y1="225" x2="740" y2="225" stroke="#ddd" stroke-width="1" transform="rotate(10 700 200)" />
  <line x1="710" y1="235" x2="740" y2="235" stroke="#ddd" stroke-width="1" transform="rotate(10 700 200)" />
  <line x1="710" y1="245" x2="740" y2="245" stroke="#ddd" stroke-width="1" transform="rotate(10 700 200)" />
  <line x1="710" y1="255" x2="740" y2="255" stroke="#ddd" stroke-width="1" transform="rotate(10 700 200)" />
</svg>
